<svg xmlns="http://www.w3.org/2000/svg" viewBox="0 0 512 512" fill="none">
  <!-- Círculo de fundo -->
  <circle cx="256" cy="256" r="240" fill="#FBBF24" opacity="0.2" />
  <circle cx="256" cy="256" r="200" fill="#FBBF24" opacity="0.4" />
  
  <!-- Logo do Google estilizado -->
  <g transform="translate(106, 156) scale(0.6)">
    <!-- G -->
    <path d="M142.9,24.2c-25.8,0-47.9,7.7-65.2,23c-17.5,15.5-26.2,35-26.2,58.4c0,23.1,8.7,42.5,26.2,58.4
      c17.3,15.3,39.4,23,65.2,23c25.8,0,47.9-7.7,65.2-23c17.5-15.9,26.2-35.3,26.2-58.4c0-23.4-8.7-42.9-26.2-58.4
      C190.8,31.9,168.7,24.2,142.9,24.2z M142.9,144.2c-15.9,0-29.5-5.3-40.9-16c-11.3-10.7-17-23.8-17-39.4
      c0-15.6,5.7-28.7,17-39.4c11.4-10.7,25-16,40.9-16c15.9,0,29.5,5.3,40.9,16c11.3,10.7,17,23.8,17,39.4
      c0,15.6-5.7,28.7-17,39.4C172.4,138.9,158.8,144.2,142.9,144.2z" fill="#4285F4"/>
    <!-- o -->
    <path d="M250.5,24.2c-25.8,0-47.9,7.7-65.2,23c-17.5,15.5-26.2,35-26.2,58.4c0,23.1,8.7,42.5,26.2,58.4
      c17.3,15.3,39.4,23,65.2,23c25.8,0,47.9-7.7,65.2-23c17.5-15.9,26.2-35.3,26.2-58.4c0-23.4-8.7-42.9-26.2-58.4
      C298.4,31.9,276.3,24.2,250.5,24.2z M250.5,144.2c-15.9,0-29.5-5.3-40.9-16c-11.3-10.7-17-23.8-17-39.4
      c0-15.6,5.7-28.7,17-39.4c11.4-10.7,25-16,40.9-16c15.9,0,29.5,5.3,40.9,16c11.3,10.7,17,23.8,17,39.4
      c0,15.6-5.7,28.7-17,39.4C280,138.9,266.4,144.2,250.5,144.2z" fill="#EA4335"/>
    <!-- o -->
    <path d="M358.1,24.2c-25.8,0-47.9,7.7-65.2,23c-17.5,15.5-26.2,35-26.2,58.4c0,23.1,8.7,42.5,26.2,58.4
      c17.3,15.3,39.4,23,65.2,23c25.8,0,47.9-7.7,65.2-23c17.5-15.9,26.2-35.3,26.2-58.4c0-23.4-8.7-42.9-26.2-58.4
      C406,31.9,383.9,24.2,358.1,24.2z M358.1,144.2c-15.9,0-29.5-5.3-40.9-16c-11.3-10.7-17-23.8-17-39.4
      c0-15.6,5.7-28.7,17-39.4c11.4-10.7,25-16,40.9-16c15.9,0,29.5,5.3,40.9,16c11.3,10.7,17,23.8,17,39.4
      c0,15.6-5.7,28.7-17,39.4C387.6,138.9,374,144.2,358.1,144.2z" fill="#FBBC05"/>
  </g>
  
  <!-- Estrelas -->
  <g transform="translate(156, 300)">
    <path d="M20,0 L26,12 L40,14 L30,24 L32,38 L20,32 L8,38 L10,24 L0,14 L14,12 Z" fill="#FBBC05" />
    <path d="M70,0 L76,12 L90,14 L80,24 L82,38 L70,32 L58,38 L60,24 L50,14 L64,12 Z" fill="#FBBC05" />
    <path d="M120,0 L126,12 L140,14 L130,24 L132,38 L120,32 L108,38 L110,24 L100,14 L114,12 Z" fill="#FBBC05" />
    <path d="M170,0 L176,12 L190,14 L180,24 L182,38 L170,32 L158,38 L160,24 L150,14 L164,12 Z" fill="#FBBC05" />
    <path d="M220,0 L226,12 L240,14 L230,24 L232,38 L220,32 L208,38 L210,24 L200,14 L214,12 Z" fill="#FBBC05" />
  </g>
  
  <!-- Polegar para cima -->
  <g transform="translate(206, 180)">
    <path d="M50,0 C22.4,0 0,22.4 0,50 C0,77.6 22.4,100 50,100 C77.6,100 100,77.6 100,50 C100,22.4 77.6,0 50,0 Z" fill="#34A853" />
    <path d="M70,35 L60,35 L60,25 C60,20 55,15 50,15 C45,15 40,20 40,25 L40,55 L30,55 C25,55 25,60 30,65 L50,85 C55,90 65,85 65,80 L65,40 C65,37.5 67.5,35 70,35 Z" fill="white" />
  </g>
  
  <!-- Borda externa -->
  <circle cx="256" cy="256" r="240" stroke="#FBBF24" stroke-width="8" fill="none" />
</svg> 