<svg width="800" height="400" viewBox="0 0 800 400" xmlns="http://www.w3.org/2000/svg">
  <!-- Definições de gradientes e filtros -->
  <defs>
    <!-- Gradiente principal roxo -->
    <linearGradient id="purpleGradient" x1="0%" y1="0%" x2="100%" y2="100%">
      <stop offset="0%" stop-color="#4A148C" />
      <stop offset="50%" stop-color="#7B1FA2" />
      <stop offset="100%" stop-color="#6A1B9A" />
    </linearGradient>
    
    <!-- Gradiente metálico para detalhes -->
    <linearGradient id="metalGradient" x1="0%" y1="0%" x2="100%" y2="100%">
      <stop offset="0%" stop-color="#E0E0E0" />
      <stop offset="40%" stop-color="#FFFFFF" />
      <stop offset="60%" stop-color="#BDBDBD" />
      <stop offset="100%" stop-color="#9E9E9E" />
    </linearGradient>
    
    <!-- Gradiente de destaque para o "PRO" -->
    <linearGradient id="accentGradient" x1="0%" y1="0%" x2="100%" y2="0%">
      <stop offset="0%" stop-color="#CE93D8" />
      <stop offset="50%" stop-color="#E1BEE7" />
      <stop offset="100%" stop-color="#CE93D8" />
    </linearGradient>
    
    <!-- Filtro de sombra suave -->
    <filter id="softShadow" x="-10%" y="-10%" width="120%" height="120%">
      <feGaussianBlur in="SourceAlpha" stdDeviation="5" />
      <feOffset dx="0" dy="4" result="offsetblur" />
      <feComponentTransfer>
        <feFuncA type="linear" slope="0.3" />
      </feComponentTransfer>
      <feMerge>
        <feMergeNode />
        <feMergeNode in="SourceGraphic" />
      </feMerge>
    </filter>
    
    <!-- Filtro de brilho metálico -->
    <filter id="metalShine" x="-10%" y="-10%" width="120%" height="120%">
      <feGaussianBlur in="SourceGraphic" stdDeviation="1" result="blur" />
      <feSpecularLighting result="specOut" in="blur" specularExponent="20" lighting-color="#FFFFFF">
        <fePointLight x="400" y="100" z="200" />
      </feSpecularLighting>
      <feComposite in="SourceGraphic" in2="specOut" operator="arithmetic" k1="0" k2="1" k3="1" k4="0" />
    </filter>
    
    <!-- Padrão de linhas para textura -->
    <pattern id="diagonalLines" width="10" height="10" patternTransform="rotate(45)" patternUnits="userSpaceOnUse">
      <line x1="0" y1="0" x2="0" y2="10" stroke="#7B1FA2" stroke-width="1" opacity="0.2" />
    </pattern>
  </defs>
  
  <!-- Fundo com textura -->
  <rect width="800" height="400" fill="#2A0845" />
  <rect width="800" height="400" fill="url(#diagonalLines)" />
  
  <!-- Círculo de fundo -->
  <circle cx="400" cy="200" r="180" fill="url(#purpleGradient)" filter="url(#softShadow)" />
  
  <!-- Elementos decorativos -->
  <path d="M250 120 C300 80, 500 80, 550 120" stroke="#9C27B0" stroke-width="2" fill="none" opacity="0.3" />
  <path d="M250 280 C300 320, 500 320, 550 280" stroke="#9C27B0" stroke-width="2" fill="none" opacity="0.3" />
  
  <!-- Navalha estilizada -->
  <g transform="translate(400, 200) rotate(-30) scale(0.8)" filter="url(#metalShine)">
    <!-- Cabo da navalha -->
    <rect x="-120" y="-20" width="80" height="40" rx="5" fill="url(#purpleGradient)" stroke="#E1BEE7" stroke-width="2" />
    <rect x="-115" y="-15" width="70" height="30" rx="3" fill="#4A148C" stroke="#E1BEE7" stroke-width="1" opacity="0.7" />
    
    <!-- Lâmina da navalha -->
    <path d="M-40 0 L80 0 L100 -15 L100 15 L80 0 Z" fill="url(#metalGradient)" stroke="#9E9E9E" stroke-width="1" />
    <line x1="-40" y1="0" x2="80" y2="0" stroke="#BDBDBD" stroke-width="1" />
    
    <!-- Detalhes do cabo -->
    <circle cx="-90" cy="0" r="8" fill="#E1BEE7" opacity="0.8" />
    <circle cx="-70" cy="0" r="8" fill="#E1BEE7" opacity="0.6" />
    <circle cx="-50" cy="0" r="8" fill="#E1BEE7" opacity="0.4" />
  </g>
  
  <!-- Texto "BARBER" -->
  <text x="400" y="230" font-family="'Montserrat', sans-serif" font-size="70" font-weight="700" text-anchor="middle" fill="#FFFFFF" filter="url(#softShadow)">BARBER</text>
  
  <!-- Texto "PRO" com estilo diferenciado -->
  <text x="400" y="290" font-family="'Montserrat', sans-serif" font-size="50" font-weight="900" text-anchor="middle" fill="url(#accentGradient)" filter="url(#softShadow)">PRO</text>
  
  <!-- Ano de estabelecimento -->
  <text x="400" y="330" font-family="'Montserrat', sans-serif" font-size="16" font-weight="300" text-anchor="middle" fill="#E1BEE7" letter-spacing="5">EST. 2023</text>
  
  <!-- Elementos decorativos adicionais -->
  <line x1="320" y1="330" x2="370" y2="330" stroke="#E1BEE7" stroke-width="1" />
  <line x1="430" y1="330" x2="480" y2="330" stroke="#E1BEE7" stroke-width="1" />
  
  <!-- Brilhos e detalhes -->
  <circle cx="300" cy="150" r="2" fill="#FFFFFF" opacity="0.8" />
  <circle cx="500" cy="150" r="2" fill="#FFFFFF" opacity="0.8" />
  <circle cx="350" cy="120" r="1.5" fill="#FFFFFF" opacity="0.6" />
  <circle cx="450" cy="120" r="1.5" fill="#FFFFFF" opacity="0.6" />
  
  <!-- Versão monocromática (oculta por padrão) -->
  <g opacity="0" id="monochrome">
    <rect width="800" height="400" fill="#FFFFFF" />
    <circle cx="400" cy="200" r="180" fill="#4A148C" />
    <g transform="translate(400, 200) rotate(-30) scale(0.8)">
      <rect x="-120" y="-20" width="80" height="40" rx="5" fill="#4A148C" stroke="#FFFFFF" stroke-width="2" />
      <path d="M-40 0 L80 0 L100 -15 L100 15 L80 0 Z" fill="#9E9E9E" stroke="#FFFFFF" stroke-width="1" />
    </g>
    <text x="400" y="230" font-family="'Montserrat', sans-serif" font-size="70" font-weight="700" text-anchor="middle" fill="#FFFFFF">BARBER</text>
    <text x="400" y="290" font-family="'Montserrat', sans-serif" font-size="50" font-weight="900" text-anchor="middle" fill="#E1BEE7">PRO</text>
  </g>
</svg> 