<svg width="50" height="50" viewBox="0 0 50 50" fill="none" xmlns="http://www.w3.org/2000/svg">
  <!-- Fundo circular -->
  <circle cx="25" cy="25" r="24" fill="#1E293B" />
  <circle cx="25" cy="25" r="21" fill="#0F172A" />
  
  <!-- Elementos de barbearia estilizados -->
  <path d="M15 17.5 L15 32.5 L17.5 35 L17.5 15 L15 17.5" fill="#E11D48" />
  <path d="M20 15 L20 35 L22.5 32.5 L22.5 17.5 L20 15" fill="#FFFFFF" />
  <path d="M25 17.5 L25 32.5 L27.5 35 L27.5 15 L25 17.5" fill="#E11D48" />
  
  <!-- Elemento tecnológico (circuito) -->
  <path d="M30 20 L35 20 L35 22.5 L37.5 22.5 L37.5 27.5 L35 27.5 L35 30 L30 30" stroke="#FFFFFF" stroke-width="1" fill="none" />
  <circle cx="30" cy="20" r="1" fill="#FFFFFF" />
  <circle cx="30" cy="30" r="1" fill="#FFFFFF" />
  <circle cx="37.5" cy="25" r="1" fill="#FFFFFF" />
  
  <!-- Texto "BP" -->
  <path d="M17 38 L20 38 Q22 38 22 40 L22 40 Q22 42 20 42 L17 42 L17 38 Z" fill="#FFFFFF" />
  <path d="M24 38 L27 38 Q29 38 29 40 L29 40 Q29 42 27 42 L24 42 L24 38 Z" fill="#E11D48" />
</svg> 